# xmcd CD database file generated by LOLA_Freedb v0.9beta0
# 
# Track frame offsets:
#      150
#      15758
#      33257
#      47439
#      58782
#      70630
#      82076
#      100309
#      112727
#      128013
#      139779
#      149603
#      160833
#      172940
#      192660
#      205307
# 
# Disc length: 2998 seconds
# 
# Revision: 0 
# Processed by: cddbd v1.5.2PL0 Copyright (c) Steve Scherf et al.
# Submitted via: LOLA_Freedb v0.9beta0
# 
DISCID=d40bb410
DTITLE=Skeeter Davis - Country Sessions
DYEAR=2008
DGENRE=
TTITLE0=Skeeter Davis - Desperado
TTITLE1=Skeeter Davis - Always On My Mind
TTITLE2=Skeeter Davis - Hopelessly Devoted To You
TTITLE3=Skeeter Davis - Gonna Get Along Without You Now
TTITLE4=Skeeter Davis - The End Of The World
TTITLE5=Skeeter Davis - Crying Time
TTITLE6=Skeeter Davis - Just When I Needed You Most
TTITLE7=Skeeter Davis - Me And Bobby McGhee
TTITLE8=Skeeter Davis - He Thinks I Still Care
TTITLE9=Skeeter Davis - I Can't Help You
TTITLE10=Skeeter Davis - I Cant't Stay Mad At You
TTITLE11=Skeeter Davis - Rocky Top
TTITLE12=Skeeter Davis - What Does It Takes
TTITLE13=Skeeter Davis - Inside Out
TTITLE14=Skeeter Davis - My Guy
TTITLE15=Skeeter Davis - I Can't top Loving You
EXTD=
EXTT0=
EXTT1=
EXTT2=
EXTT3=
EXTT4=
EXTT5=
EXTT6=
EXTT7=
EXTT8=
EXTT9=
EXTT10=
EXTT11=
EXTT12=
EXTT13=
EXTT14=
EXTT15=
PLAYORDER=
